PathFileType	4	(X/Y/Z)	C:/Users/opensim2020/Desktop/walking_exp_matlab/subject03_walking07_straight_04.trc	
DataRate	CameraRate	NumFrames	NumMarkers	Units	OrigDataRate	OrigDataStartFrame	OrigNumFrames	
100.00	100.00	8	46	mm	100.00	3058	265	
Frame#	Time	LFHD			RFHD			LBHD			RBHD			C7			T10			CLAV			STRN			RBAK			LSHO			LUPA			LELB			LFRM			LWRA			LWRB			LFIN			RSHO			RUPA			RELB			RFRM			RWRA			RWRB			RFIN			LASI			RASI			LPSI			RPSI			LTHI			LKNE			LTIB			LANK			LHEE			LTOE			RTHI			RKNE			RTIB			RANK			RHEE			RTOE			*39			*40			*41			*42			*43			*44			*45			
		X1	Y1	Z1	X2	Y2	Z2	X3	Y3	Z3	X4	Y4	Z4	X5	Y5	Z5	X6	Y6	Z6	X7	Y7	Z7	X8	Y8	Z8	X9	Y9	Z9	X10	Y10	Z10	X11	Y11	Z11	X12	Y12	Z12	X13	Y13	Z13	X14	Y14	Z14	X15	Y15	Z15	X16	Y16	Z16	X17	Y17	Z17	X18	Y18	Z18	X19	Y19	Z19	X20	Y20	Z20	X21	Y21	Z21	X22	Y22	Z22	X23	Y23	Z23	X24	Y24	Z24	X25	Y25	Z25	X26	Y26	Z26	X27	Y27	Z27	X28	Y28	Z28	X29	Y29	Z29	X30	Y30	Z30	X31	Y31	Z31	X32	Y32	Z32	X33	Y33	Z33	X34	Y34	Z34	X35	Y35	Z35	X36	Y36	Z36	X37	Y37	Z37	X38	Y38	Z38	X39	Y39	Z39	X40	Y40	Z40	X41	Y41	Z41	X42	Y42	Z42	X43	Y43	Z43	X44	Y44	Z44	X45	Y45	Z45	X46	Y46	Z46	

100	0.990	-958.69086	94.75262	1606.29004	-1091.45142	102.12483	1610.17456	-955.16626	228.39001	1584.41504	-1086.27979	230.86862	1587.25305	-1017.61517	282.33365	1421.60608	-1023.22345	326.64758	1106.06995	-1014.91638	166.30370	1338.41992	-1007.06421	128.58322	1173.56348	-1120.05225	337.62247	1245.65430	-860.67572	211.18964	1377.65942	-792.80890	223.28917	1179.02344	-784.30579	215.06662	1055.50708	-785.64417	187.91788	928.11072	-816.38049	167.39474	810.64868	-765.99158	191.61905	815.12842	-774.94269	174.95490	732.63483	-1174.93640	202.57709	1364.16870	-1250.96887	174.09468	1145.57947	-1264.49841	140.30460	1038.16296	-1266.98621	102.10091	906.72388	-1230.55359	61.83724	815.72943	-1277.88794	86.44927	808.43585	-1268.75830	52.95551	742.09296	-898.03802	164.68175	942.86029	-1134.88647	150.32472	943.76746	-955.04706	323.63901	956.82996	-1103.94543	313.17334	972.44519	-845.90326	145.61044	645.49536	-867.58295	82.82060	477.00665	-877.66455	190.14024	309.32745	-925.56152	286.10443	126.53525	-968.70801	335.17374	107.80194	-937.18738	165.18701	43.73453	-1171.81311	212.20955	647.79431	-1132.94446	210.56210	468.07910	-1133.49805	267.00259	284.67505	-1079.94287	305.04468	72.25557	-1029.58167	349.49768	41.73074	-1061.79675	163.44252	31.32555																					 
101	1.000	-958.41193	85.60457	1605.90088	-1091.10022	92.90607	1610.05713	-954.99677	219.24988	1584.08972	-1086.12817	221.65187	1587.18091	-1017.68976	273.11163	1421.39502	-1023.62805	317.46954	1105.79749	-1015.01031	157.06667	1338.24438	-1007.28192	119.49757	1173.31982	-1120.57715	328.24939	1245.53918	-860.68402	202.35013	1377.19312	-792.94531	216.06184	1178.39600	-784.51581	209.10941	1054.77148	-785.80603	184.08499	926.88037	-816.33179	165.67017	808.99756	-765.86780	189.67662	814.06628	-774.83820	175.13522	731.05292	-1174.99878	193.04547	1364.05310	-1251.42932	162.63249	1146.04688	-1265.02429	127.57811	1038.99451	-1267.46509	87.12037	908.29889	-1231.01233	44.99231	818.25922	-1278.00305	69.78735	810.25305	-1268.73523	35.09674	744.54419	-898.63116	155.40312	942.83240	-1135.39673	141.76331	943.04944	-955.00665	314.58264	956.61096	-1103.98840	304.52399	972.19861	-846.50745	134.11145	646.13409	-869.49402	70.09734	478.31445	-879.21411	169.96623	305.54871	-926.61890	255.72816	117.48415	-969.71973	304.10217	96.29440	-937.89526	130.07649	42.03610	-1172.01929	206.26488	647.44794	-1133.25146	206.30133	467.81894	-1133.51160	264.71783	284.94501	-1079.69324	304.78699	72.89230	-1029.24744	349.24054	42.75148	-1061.94800	163.33713	31.33785	-1005.21985	158.87097	1682.61267																		 
102	1.010	-957.98615	76.58967	1605.64270	-1090.77490	83.67550	1609.92773	-954.78015	210.12265	1583.60962	-1085.89355	212.44756	1586.98999	-1017.84698	263.85898	1421.01990	-1023.92999	308.27878	1105.44202	-1015.04578	147.82858	1337.88635	-1007.40265	110.21270	1172.98267	-1120.99158	318.83417	1245.28210	-860.62860	193.48491	1376.67688	-793.07324	208.76515	1177.71228	-784.61218	203.20674	1053.98425	-785.88177	180.21329	925.68207	-816.24542	163.68401	807.53241	-765.72369	187.53308	813.00702	-774.84747	175.00540	729.58142	-1175.04016	183.52245	1363.86987	-1251.80200	151.17349	1146.38696	-1265.78015	115.00965	1039.90503	-1267.82068	72.26457	909.83441	-1231.21606	28.33591	820.83081	-1277.99097	53.32989	812.01630	-1268.50452	17.38481	747.08636	-899.12909	145.97984	942.69214	-1135.99146	133.29903	942.48944	-954.97821	305.42596	956.35419	-1103.92090	295.89090	971.95978	-846.95172	122.67390	646.69324	-871.31604	58.18229	479.22049	-880.59357	150.10448	301.63776	-927.65192	224.88145	108.67672	-970.92780	271.27200	84.38435	-938.42712	94.88418	40.74568	-1172.23315	200.24040	647.06665	-1133.41199	201.97928	467.54932	-1133.48523	262.43152	285.24347	-1079.49255	304.35669	73.47530	-1028.87244	349.07642	43.92645	-1062.01233	163.22052	31.26728																					 
103	1.020	-957.57587	67.54160	1605.21167	-1090.31433	74.47055	1609.77576	-954.52814	201.03099	1583.03015	-1085.65369	203.19067	1586.69385	-1017.94379	254.56329	1420.68579	-1023.98682	299.09518	1105.02832	-1015.05792	138.55156	1337.48535	-1007.53394	100.99269	1172.56409	-1121.28760	309.47391	1244.95923	-860.53613	184.54755	1376.06177	-793.08368	201.40767	1176.96741	-784.69122	197.27623	1053.11169	-785.87231	176.24335	924.53058	-816.20465	161.58319	806.04199	-765.49194	185.13387	812.00397	-775.01660	174.55128	728.13556	-1175.07654	173.96924	1363.61279	-1252.13232	139.78590	1146.69409	-1266.12207	102.42712	1040.61267	-1268.03796	57.62060	911.35132	-1231.24292	11.95247	823.31268	-1277.77051	37.02211	813.79681	-1268.04028	-0.20241	749.59546	-899.64075	136.39153	942.37109	-1136.52209	125.00246	941.87219	-954.77643	296.26923	956.03693	-1103.77209	287.29065	971.60779	-847.59540	112.06400	646.69501	-873.01416	47.00293	479.77701	-881.98584	130.26088	297.65933	-928.71179	193.28288	100.42728	-972.26636	238.47026	73.51590	-938.79132	59.44115	40.09790	-1172.27368	194.20963	646.76147	-1133.62012	197.64751	467.29892	-1133.57776	260.01550	285.47092	-1079.48730	303.97659	74.10255	-1028.20850	349.20044	45.23399	-1062.16675	163.26973	31.26878																					 
104	1.030	-957.13275	58.44895	1604.67334	-1089.86206	65.26035	1609.52527	-954.29822	191.92178	1582.35718	-1085.33948	193.97983	1586.24011	-1018.01428	245.22116	1420.10913	-1023.94476	289.89328	1104.55237	-1014.97772	129.16017	1337.04846	-1007.66028	91.66672	1172.08594	-1121.48035	300.08710	1244.58325	-860.35303	175.50906	1375.37292	-793.12415	193.92847	1176.07971	-784.68976	191.34669	1052.35632	-785.84875	172.11467	923.40558	-816.12610	159.33453	804.67767	-765.47992	182.69264	810.88159	-775.20770	173.74449	726.79059	-1175.05762	164.40958	1363.23535	-1252.37488	128.44330	1146.89050	-1266.44250	89.95975	1041.27197	-1268.03979	43.09227	912.75671	-1231.02051	-4.17922	825.79260	-1277.32031	20.87275	815.48688	-1267.35889	-17.55931	752.11719	-900.06226	126.73051	941.82074	-1137.07666	116.58495	941.21027	-954.52344	286.98425	955.69000	-1103.50977	278.64719	971.19263	-847.45392	101.03972	647.06445	-874.68903	36.68931	479.81165	-883.15326	110.70327	293.76111	-929.58118	161.23601	92.70818	-973.85541	204.13388	63.01615	-939.64026	24.18907	39.79353	-1172.45752	188.00320	646.38654	-1133.77869	193.26073	467.03226	-1133.33179	257.70871	285.77640	-1079.19324	303.64816	74.82808	-1027.86536	349.03604	46.46221	-1062.15918	162.84511	31.33259																					 
105	1.040	-956.63379	49.33164	1604.13635	-1089.39734	56.04695	1609.20850	-953.94910	182.75307	1581.56348	-1085.05139	184.69604	1585.69922	-1018.13879	235.92439	1419.51489	-1023.63208	280.68750	1103.97083	-1014.94177	119.81964	1336.42383	-1007.88806	82.42165	1171.46362	-1121.61755	290.68283	1244.14258	-860.20599	166.40733	1374.57544	-793.05530	186.52632	1175.20361	-784.55267	185.49980	1051.53223	-785.68134	167.92963	922.33472	-816.63452	157.59683	802.86841	-765.28870	179.98029	809.89844	-775.46027	172.52356	725.52887	-1175.00806	154.78815	1362.79578	-1252.55725	117.23448	1147.00488	-1266.79712	77.68774	1041.97876	-1267.89941	28.72923	914.12067	-1230.57458	-20.01001	828.25378	-1276.72290	4.93348	817.17194	-1266.52148	-34.72972	754.69769	-900.17322	116.53833	941.30920	-1137.58875	108.23274	940.53833	-954.09729	277.58289	955.24927	-1103.10059	270.01175	970.77228	-847.78229	90.97458	646.63971	-876.32355	26.80782	479.41229	-884.29230	91.29465	290.00705	-930.02960	129.27864	85.87703	-974.63049	169.64996	53.29564	-940.40063	-11.06463	40.32141	-1172.51868	181.82907	646.17798	-1133.94104	188.92850	466.79138	-1133.03259	255.50354	286.17102	-1078.75781	303.41586	75.62616	-1027.45020	348.75256	47.57044	-1062.32886	162.65858	31.32988																					 
106	1.050	-956.20038	40.18581	1603.53430	-1088.92346	46.81690	1608.81873	-953.68420	173.60222	1580.67920	-1084.69666	175.43205	1584.98718	-1018.12158	226.52921	1418.83716	-1023.17676	271.40375	1103.37561	-1014.78229	110.37644	1335.77112	-1008.12256	73.10602	1170.75439	-1121.63147	281.31622	1243.68225	-859.97736	157.24355	1373.79199	-792.92383	179.09238	1174.36218	-784.36475	179.72569	1050.64893	-785.45782	163.69810	921.28711	-815.93036	154.02354	802.25452	-765.14032	177.09155	808.94183	-775.50403	170.78279	724.37189	-1174.92786	145.12117	1362.18176	-1252.67224	106.11869	1147.03430	-1266.86377	65.47149	1042.51941	-1267.56873	14.61292	915.42273	-1229.85608	-35.53539	830.64124	-1275.96399	-10.73590	818.80365	-1265.45508	-51.66344	757.24481	-900.83575	107.07535	940.22601	-1138.02441	99.72574	939.83240	-953.63959	268.00894	954.68054	-1102.61023	261.24649	970.23846	-848.12549	81.50472	645.76215	-878.12506	17.63533	478.55698	-885.29590	72.04343	286.50217	-930.59424	97.16500	80.10031	-974.45184	136.30386	45.72328	-941.26849	-45.56273	41.31920	-1172.59253	175.55711	645.79578	-1134.13098	184.49245	466.50549	-1132.88062	253.00449	286.50726	-1078.56287	302.93991	76.30627	-1027.09814	348.51260	48.69791	-1062.34998	162.55969	31.28700																					 
107	1.060	-955.66876	31.00970	1602.87964	-1088.37793	37.56015	1608.29565	-953.26270	164.37750	1579.70178	-1084.31848	166.11121	1584.19946	-1017.74371	217.04263	1418.07727	-1022.56628	262.16327	1102.70459	-1014.64099	100.89934	1335.02393	-1008.35101	63.75285	1169.95483	-1121.64185	271.87515	1243.12085	-859.70752	147.91835	1372.87903	-792.62476	171.67584	1173.48462	-784.06262	173.81944	1049.79492	-785.19330	159.27675	920.24158	-815.69678	150.82397	801.20776	-764.94312	174.05255	808.01892	-775.76648	169.05244	723.20978	-1174.79346	135.58487	1361.76111	-1252.75244	95.17039	1146.98962	-1266.85559	53.44009	1042.91980	-1267.12024	0.67190	916.64569	-1228.94934	-50.64531	832.88989	-1274.92200	-26.18081	820.38800	-1264.19189	-68.34095	759.81921	-901.11780	97.12054	939.15271	-1138.36279	91.20672	939.04309	-952.97803	258.31735	953.98846	-1102.05103	252.40222	969.66656	-848.47375	72.66941	644.36072	-879.95178	8.70321	477.36902	-886.40009	53.09378	283.40707	-930.89276	65.55254	75.39400	-973.95734	103.37161	39.80103	-942.13794	-79.35255	42.60419	-1172.62891	169.30106	645.37177	-1134.32739	179.88713	466.21921	-1132.77893	250.30481	286.79620	-1078.35754	302.55475	77.09525	-1026.86035	348.22537	49.85453	-1062.35815	162.38252	31.10612	-1002.07001	104.66058	1679.17554																		 
